HIERARCHY
ROOT hip
{
  OFFSET 0 0 0
  CHANNELS 6 Xposition Yposition Zposition Zrotation Yrotation Xrotation
  JOINT abdomen
  {
    OFFSET 0 20.6881 -0.73152
    CHANNELS 3 Zrotation Xrotation Yrotation
    JOINT chest
    {
      OFFSET 0 11.7043 -0.48768
      CHANNELS 3 Zrotation Xrotation Yrotation
      JOINT neck
      {
        OFFSET 0 22.1894 -2.19456
        CHANNELS 3 Zrotation Xrotation Yrotation
        JOINT head
        {
          OFFSET -0.24384 7.07133 1.2192
          CHANNELS 3 Zrotation Xrotation Yrotation
          JOINT leftEye
          {
            OFFSET 4.14528 8.04674 8.04672
            CHANNELS 3 Zrotation Xrotation Yrotation
            End Site
            {
              OFFSET 1 0 0
            }
          }
          JOINT rightEye
          {
            OFFSET -3.6576 8.04674 8.04672
            CHANNELS 3 Zrotation Xrotation Yrotation
            End Site
            {
              OFFSET 1 0 0
            }
          }
        }
      }
      JOINT rCollar
      {
        OFFSET -2.68224 19.2634 -4.8768
        CHANNELS 3 Zrotation Xrotation Yrotation
        JOINT rShldr
        {
          OFFSET -8.77824 -1.95073 1.46304
          CHANNELS 3 Zrotation Xrotation Yrotation
          JOINT rForeArm
          {
            OFFSET -28.1742 -1.7115 0.48768
            CHANNELS 3 Zrotation Xrotation Yrotation
            JOINT rHand
            {
              OFFSET -22.5879 0.773209 7.07136
              CHANNELS 3 Zrotation Xrotation Yrotation
              JOINT rThumb1
              {
                OFFSET -1.2192 -0.487915 3.41376
                CHANNELS 3 Zrotation Xrotation Yrotation
                JOINT rThumb2
                {
                  OFFSET -3.37035 -0.52449 3.41376
                  CHANNELS 3 Zrotation Xrotation Yrotation
                  End Site
                  {
                    OFFSET -1.78271 -1.18214 1.43049
                  }
                }
              }
              JOINT rIndex1
              {
                OFFSET -7.75947 0.938293 5.60832
                CHANNELS 3 Zrotation Xrotation Yrotation
                JOINT rIndex2
                {
                  OFFSET -2.54057 -0.884171 1.56538
                  CHANNELS 3 Zrotation Xrotation Yrotation
                  End Site
                  {
                    OFFSET -1.62519 -0.234802 1.16502
                  }
                }
              }
              JOINT rMid1
              {
                OFFSET -8.24714 1.18213 3.41376
                CHANNELS 3 Zrotation Xrotation Yrotation
                JOINT rMid2
                {
                  OFFSET -3.10165 -0.590103 1.0647
                  CHANNELS 3 Zrotation Xrotation Yrotation
                  End Site
                  {
                    OFFSET -2.48547 -0.328903 0.83742
                  }
                }
              }
              JOINT rRing1
              {
                OFFSET -8.82822 0.546677 1.51678
                CHANNELS 3 Zrotation Xrotation Yrotation
                JOINT rRing2
                {
                  OFFSET -2.60934 -0.819778 -0.0198488
                  CHANNELS 3 Zrotation Xrotation Yrotation
                  End Site
                  {
                    OFFSET -2.33842 -0.294052 0.168128
                  }
                }
              }
              JOINT rPinky1
              {
                OFFSET -8.27202 -0.0477905 -0.4584
                CHANNELS 3 Zrotation Xrotation Yrotation
                JOINT rPinky2
                {
                  OFFSET -1.82734 -0.647385 -0.700984
                  CHANNELS 3 Zrotation Xrotation Yrotation
                  End Site
                  {
                    OFFSET -1.69225 -0.51767 -0.607171
                  }
                }
              }
            }
          }
        }
      }
      JOINT lCollar
      {
        OFFSET 2.68224 19.2634 -4.8768
        CHANNELS 3 Zrotation Xrotation Yrotation
        JOINT lShldr
        {
          OFFSET 8.77824 -1.95073 1.46304
          CHANNELS 3 Zrotation Xrotation Yrotation
          JOINT lForeArm
          {
            OFFSET 28.1742 -1.7115 0.48768
            CHANNELS 3 Zrotation Xrotation Yrotation
            JOINT lHand
            {
              OFFSET 22.5879 0.773209 7.07136
              CHANNELS 3 Zrotation Xrotation Yrotation
              JOINT lThumb1
              {
                OFFSET 1.2192 -0.487915 3.41376
                CHANNELS 3 Zrotation Xrotation Yrotation
                JOINT lThumb2
                {
                  OFFSET 3.37035 -0.52449 3.41376
                  CHANNELS 3 Zrotation Xrotation Yrotation
                  End Site
                  {
                    OFFSET 1.78271 -1.18214 1.43049
                  }
                }
              }
              JOINT lIndex1
              {
                OFFSET 7.75947 0.938293 5.60832
                CHANNELS 3 Zrotation Xrotation Yrotation
                JOINT lIndex2
                {
                  OFFSET 2.54057 -0.884171 1.56538
                  CHANNELS 3 Zrotation Xrotation Yrotation
                  End Site
                  {
                    OFFSET 1.62519 -0.234802 1.16502
                  }
                }
              }
              JOINT lMid1
              {
                OFFSET 8.24714 1.18213 3.41376
                CHANNELS 3 Zrotation Xrotation Yrotation
                JOINT lMid2
                {
                  OFFSET 3.10165 -0.590103 1.0647
                  CHANNELS 3 Zrotation Xrotation Yrotation
                  End Site
                  {
                    OFFSET 2.48547 -0.328903 0.83742
                  }
                }
              }
              JOINT lRing1
              {
                OFFSET 8.82822 0.546677 1.51678
                CHANNELS 3 Zrotation Xrotation Yrotation
                JOINT lRing2
                {
                  OFFSET 2.60934 -0.819778 -0.0198488
                  CHANNELS 3 Zrotation Xrotation Yrotation
                  End Site
                  {
                    OFFSET 2.33842 -0.294052 0.168128
                  }
                }
              }
              JOINT lPinky1
              {
                OFFSET 8.27202 -0.0477905 -0.4584
                CHANNELS 3 Zrotation Xrotation Yrotation
                JOINT lPinky2
                {
                  OFFSET 1.82734 -0.647385 -0.700984
                  CHANNELS 3 Zrotation Xrotation Yrotation
                  End Site
                  {
                    OFFSET 1.69225 -0.51767 -0.607171
                  }
                }
              }
            }
          }
        }
      }
    }
  }
  JOINT rButtock
  {
    OFFSET -8.77824 4.35084 1.2192
    CHANNELS 3 Zrotation Xrotation Yrotation
    JOINT rThigh
    {
      OFFSET 0 -1.70687 -2.19456
      CHANNELS 3 Zrotation Xrotation Yrotation
      JOINT rShin
      {
        OFFSET 0 -36.8199 0.73152
        CHANNELS 3 Zrotation Xrotation Yrotation
        JOINT rFoot
        {
          OFFSET 0.73152 -45.1104 -5.12064
          CHANNELS 3 Zrotation Xrotation Yrotation
          End Site
          {
            OFFSET -1.1221 -3.69964 12.103
          }
        }
      }
    }
  }
  JOINT lButtock
  {
    OFFSET 8.77824 4.35084 1.2192
    CHANNELS 3 Zrotation Xrotation Yrotation
    JOINT lThigh
    {
      OFFSET 0 -1.70687 -2.19456
      CHANNELS 3 Zrotation Xrotation Yrotation
      JOINT lShin
      {
        OFFSET 0 -36.8199 0.73152
        CHANNELS 3 Zrotation Xrotation Yrotation
        JOINT lFoot
        {
          OFFSET -0.73152 -45.1104 -5.12064
          CHANNELS 3 Zrotation Xrotation Yrotation
          End Site
          {
            OFFSET 1.1221 -3.69964 12.103
          }
        }
      }
    }
  }
}
MOTION
Frames:	4
Frame Time:	0.03333
0.0 0.0 0.0 0.0 0.0 0.0 0.0 0.0 0.0 0.0 0.0 0.0 0.0 0.0 0.0 0.0 0.0 0.0 0.0 0.0 0.0 0.0 0.0 0.0 0.0 0.0 0.0 0.0 0.0 0.0 0.0 0.0 0.0 0.0 0.0 0.0 0.0 0.0 0.0 0.0 0.0 0.0 0.0 0.0 0.0 0.0 0.0 0.0 0.0 0.0 0.0 0.0 0.0 0.0 0.0 0.0 0.0 0.0 0.0 0.0 0.0 0.0 0.0 0.0 0.0 0.0 0.0 0.0 0.0 0.0 0.0 0.0 0.0 0.0 0.0 0.0 0.0 0.0 0.0 0.0 0.0 0.0 0.0 0.0 0.0 0.0 0.0 0.0 0.0 0.0 0.0 0.0 0.0 0.0 0.0 0.0 0.0 0.0 0.0 0.0 0.0 0.0 0.0 0.0 0.0 0.0 0.0 0.0 0.0 0.0 0.0 0.0 0.0 0.0 0.0 0.0 0.0 0.0 0.0 0.0 0.0 0.0 0.0 0.0 0.0 0.0 0.0 0.0 0.0 0.0 0.0 0.0
0.0973 63.0181 0.09990000000000002 -0.233212 -6.730509 -0.657938 -1.213726 -0.975478 135.455395 10.352813 -5.912587 -107.263823 7.51956 -10.212452 94.405441 -44.349984 14.931214 -98.665649 -111.52282 5.097564 7.484265 -52.572988 -1.915109 3.876112 67.637768 29.813912 11.33248 -165.181288 -19.470877 170.451373 -177.454375 -72.056878 12.495159 -3.824634 -41.800182 -106.130377 -171.493977 -4.586331 54.112854 148.326352 39.224678 -101.441918 111.124854 -29.623218 159.307976 2.391836 10.756904 129.678101 -1.861692 18.96746 -115.457125 -161.835815 -73.205663 82.420493 77.4272 27.91506 -72.112922 -155.027991 68.594973 -160.68 -175.728774 42.203597 -60.201634 -151.175918 66.574621 -118.234883 78.623878 2.630526 -157.196478 147.560717 55.960395 -154.488594 165.391562 -76.650009 8.728282 -179.90995 32.133295 -79.494305 173.769076 -0.198286 -62.04957 29.655415 -46.963625 179.527658 -174.554723 22.265446 -53.137214 164.847718 -86.99702 151.71578 -21.497626 -32.427682 -41.12579 37.149375 -24.357467 157.840015 -171.432285 22.249266 70.420488 -170.74285 27.327983 173.184705 136.850358 23.304651 71.626769 168.613157 36.041239 143.946865 -19.987713 56.894433 -151.420153 8.97523 57.33381 -179.654291 7.404604 0.022557 94.746992 62.59617 72.218922 -64.504058 59.305212 23.797701 90.13844 -25.851993 60.095007 -17.89442 -3.527553 0.533331 -103.527198 76.497083 25.690415 -92.264693
0.7761 61.512299999999996 1.0602 -176.341644 -6.838611 178.730177 -0.352759 15.66792 -166.1293 2.038929 4.46643 167.549582 -5.272508 17.928359 -58.502823 36.790209 -5.763467 55.619228 -22.452171 4.516628 -22.475346 6.269654 -0.983209 -17.808026 0.115445 27.194507 4.002903 64.842067 27.57989 20.134783 -7.733686 -29.907864 81.497644 -2.397423 -15.213432 -20.107957 3.498536 -0.032155 -5.011186 -134.514847 -72.295805 128.42438 15.277864 -44.72733 26.536696 -166.550109 34.88603 151.156556 -2.612807 24.694117 -3.526028 -72.715412 48.49578 39.4355 -42.004151 -10.642429 -0.612727 68.848712 25.255037 1.716093 58.455734 46.173511 7.551139 128.578048 23.710122 -131.904777 162.566041 -23.893056 -164.99748 -115.419806 47.130605 114.549602 2.685684 36.049527 -72.063715 5.800269 26.295029 0.170233 170.245199 -7.802563 -95.45776 116.792466 5.787707 -107.323685 -1.314404 -38.989825 4.076174 169.09172 -43.574834 -107.036579 -1.202253 -3.694318 -8.214511 168.868306 9.121201 -150.94516 -17.251099 -47.293927 -10.675858 -0.66852 -1.182945 2.170858 51.333785 78.685207 -101.966619 -3.116822 11.433686 30.775065 3.598792 2.514635 -2.17547 -26.710232 -45.04251 114.973603 66.737691 -47.44184 8.039207 -153.507949 -10.323875 136.370375 164.06235 76.798814 5.527871 -137.036505 23.56936 107.342442 80.118087 -30.582863 133.929187 82.39003 -23.308959 167.970987
0.7552 63.8502 1.4578 -175.920199 -21.717411 177.489951 -0.748815 14.583608 1.537989 2.201582 -5.039088 -3.058399 2.451931 28.575983 113.850786 -43.983135 6.856336 -106.934887 -3.738096 0.513888 -15.649758 10.397342 1.018778 11.162217 -144.444305 51.779209 149.093791 84.105326 -13.560793 100.711714 151.811374 33.37578 70.969895 -149.886918 34.466484 119.525441 177.910042 -25.415247 76.61945 -179.125895 37.958586 17.795495 -141.772085 -11.276948 80.512526 -100.263254 -42.241326 56.326628 -150.810528 30.294262 119.392878 21.633612 -28.233672 -0.960785 117.683956 64.101928 -121.950473 -92.343638 44.355114 47.841946 56.05357 0.319862 -32.611332 152.240857 46.509964 138.167016 3.399598 -38.320027 10.363425 91.965575 -6.293418 -161.732675 -56.99655 30.962914 129.256568 -178.425099 13.057139 -143.017833 3.001445 8.213558 0.138216 -1.462704 -2.039704 -41.982871 159.975416 22.927503 -86.944102 162.044016 -5.868564 -70.460725 157.300381 2.759896 -132.437613 15.364565 5.38855 -35.441435 124.4247 9.951015 -156.459955 -0.904913 -40.055268 48.536396 13.4051 -50.580367 41.926279 -7.282609 -19.482984 -58.757757 20.425453 10.633163 6.045789 -60.213232 -45.639458 -15.078268 56.080622 56.851382 48.252708 59.687513 82.381391 -143.847316 159.133652 73.58711 12.633492 -134.288726 26.744054 72.822381 78.52972 -4.032092 88.803456 12.41847 27.032325 -172.097167
